<svg width="40" height="40" viewBox="0 0 40 40" fill="none" xmlns="http://www.w3.org/2000/svg">
<path fill-rule="evenodd" clip-rule="evenodd" d="M17.1427 11H22.2856C22.9957 11 23.5713 11.5037 23.5713 12.125C23.5713 12.7463 22.9957 13.25 22.2856 13.25H17.1427C16.4326 13.25 15.857 12.7463 15.857 12.125C15.857 11.5037 16.4326 11 17.1427 11ZM15.0427 11.75C15.2413 10.8942 16.106 10.25 17.1427 10.25H22.2856C23.3223 10.25 24.187 10.8942 24.3856 11.75H24.857C26.5139 11.75 27.857 12.9253 27.857 14.375V25.625C27.857 27.0747 26.5139 28.25 24.857 28.25H14.5713C12.9144 28.25 11.5713 27.0747 11.5713 25.625V14.375C11.5713 12.9253 12.9144 11.75 14.5713 11.75H15.0427ZM24.3856 12.5H24.857C26.0405 12.5 26.9999 13.3395 26.9999 14.375V25.625C26.9999 26.6605 26.0405 27.5 24.857 27.5H14.5713C13.3878 27.5 12.4284 26.6605 12.4284 25.625V14.375C12.4284 13.3395 13.3878 12.5 14.5713 12.5H15.0427C15.2413 13.3558 16.106 14 17.1427 14H22.2856C23.3223 14 24.187 13.3558 24.3856 12.5Z" fill="black"/>
</svg>
