<svg width="40" height="40" viewBox="0 0 40 40" fill="none" xmlns="http://www.w3.org/2000/svg">
<path fill-rule="evenodd" clip-rule="evenodd" d="M10.2676 14.375C10.2676 12.9253 11.6049 11.75 13.2546 11.75H19.6555C21.3052 11.75 22.6426 12.9253 22.6426 14.375V16.0625C22.6426 16.2696 22.4515 16.4375 22.2159 16.4375C21.9802 16.4375 21.7891 16.2696 21.7891 16.0625V14.375C21.7891 13.3395 20.8339 12.5 19.6555 12.5H13.2546C12.0763 12.5 11.121 13.3395 11.121 14.375V25.625C11.121 26.6605 12.0763 27.5 13.2546 27.5H19.6555C20.8339 27.5 21.7891 26.6605 21.7891 25.625V23.9375C21.7891 23.7304 21.9802 23.5625 22.2159 23.5625C22.4515 23.5625 22.6426 23.7304 22.6426 23.9375V25.625C22.6426 27.0747 21.3052 28.25 19.6555 28.25H13.2546C11.6049 28.25 10.2676 27.0747 10.2676 25.625V14.375ZM19.6905 24.0152C19.5239 24.1616 19.2537 24.1616 19.0871 24.0152L15.2724 20.6629C14.8558 20.2968 14.8558 19.7032 15.2724 19.3371L19.0871 15.9848C19.2537 15.8384 19.5239 15.8384 19.6905 15.9848C19.8572 16.1313 19.8572 16.3687 19.6905 16.5152L16.1518 19.625L28.6167 19.625C28.8524 19.625 29.0434 19.7929 29.0434 20C29.0434 20.2071 28.8524 20.375 28.6167 20.375L16.1518 20.375L19.6905 23.4848C19.8572 23.6313 19.8572 23.8687 19.6905 24.0152Z" fill="#020000"/>
</svg>
