<svg width="40" height="40" viewBox="0 0 40 40" fill="none" xmlns="http://www.w3.org/2000/svg">
<path fill-rule="evenodd" clip-rule="evenodd" d="M20.052 10.6874C14.4518 10.6874 9.93555 14.3004 9.93555 18.6866C9.93555 21.5336 11.8143 24.0266 14.6325 25.4501L13.6786 29.0126C13.6606 29.066 13.6579 29.1233 13.6706 29.1782C13.6834 29.233 13.7112 29.2833 13.7509 29.3233C13.8088 29.3743 13.8833 29.4026 13.9604 29.4027C14.0244 29.3976 14.0852 29.3723 14.1339 29.3305L18.2383 26.563C18.8441 26.6466 19.4548 26.69 20.0664 26.693C25.6594 26.693 30.1829 23.08 30.1829 18.6866C30.1829 14.2931 25.6449 10.6874 20.052 10.6874ZM13.4758 17.422H12.3703C12.2332 17.426 12.0979 17.3909 11.9801 17.3208C11.9277 17.288 11.8828 17.2448 11.8479 17.1938C11.8131 17.1428 11.7892 17.0852 11.7777 17.0245C11.7742 16.9861 11.7742 16.9474 11.7777 16.909C11.7743 16.837 11.7883 16.7652 11.8185 16.6998C11.8486 16.6344 11.8942 16.5773 11.9512 16.5332C12.0771 16.442 12.2292 16.3938 12.3847 16.3958H15.7159C15.854 16.391 15.9903 16.4289 16.1061 16.5043C16.1597 16.5356 16.2056 16.5785 16.2406 16.6297C16.2756 16.6809 16.2988 16.7393 16.3085 16.8005C16.312 16.8366 16.312 16.8729 16.3085 16.909C16.3119 16.982 16.2979 17.0547 16.2678 17.1213C16.2376 17.1878 16.1921 17.2463 16.135 17.2919C16.0121 17.383 15.8615 17.429 15.7087 17.422H14.6392V21.2229C14.6436 21.3039 14.6311 21.3848 14.6024 21.4607C14.5738 21.5366 14.5298 21.6057 14.473 21.6637C14.4186 21.7191 14.3533 21.7625 14.2811 21.7911C14.2089 21.8197 14.1315 21.8329 14.0539 21.8298C13.9182 21.8337 13.7854 21.7903 13.6782 21.7071C13.5761 21.6257 13.5068 21.5102 13.4831 21.3818C13.4759 21.3291 13.4759 21.2756 13.4831 21.2229L13.4758 17.422ZM16.8371 16.3886C16.734 16.4558 16.6593 16.5588 16.6276 16.6777L15.0956 20.8327C15.0875 20.855 15.0777 20.8779 15.0677 20.9011C15.0423 20.9603 15.0161 21.0213 15.0161 21.0784C15.0037 21.1501 15.0037 21.2234 15.0161 21.2951C15.0123 21.336 15.0123 21.3772 15.0161 21.418C15.0373 21.5378 15.1016 21.6457 15.1968 21.7214C15.2945 21.7948 15.4142 21.8331 15.5364 21.8299C15.6492 21.844 15.7635 21.8187 15.8596 21.7581C15.9558 21.6974 16.028 21.6054 16.0639 21.4975L16.3674 20.6087H18.2679L18.5713 21.4975C18.6081 21.6033 18.6795 21.6936 18.7739 21.7539C18.8682 21.8142 18.9802 21.8409 19.0916 21.8299C19.1641 21.8316 19.2362 21.8184 19.3033 21.791C19.3704 21.7637 19.4312 21.7228 19.4818 21.6709C19.5341 21.6236 19.5754 21.5655 19.6028 21.5006C19.6303 21.4357 19.6432 21.3656 19.6408 21.2951C19.6433 21.2494 19.6433 21.2036 19.6408 21.1579C19.6157 21.0478 19.5843 20.9392 19.5469 20.8327L18.1017 16.7499C18.0671 16.6053 17.9794 16.4789 17.856 16.3959C17.7395 16.3296 17.6069 16.2971 17.473 16.3019H17.1984C17.0722 16.2963 16.947 16.3263 16.8371 16.3886ZM16.6637 19.7922L17.3502 17.6243L18.0294 19.7922H16.6637ZM19.8063 16.909C19.799 16.7469 19.8561 16.5884 19.9653 16.4683C20.0208 16.4123 20.0874 16.3686 20.1608 16.3399C20.2342 16.3113 20.3129 16.2983 20.3916 16.302C20.527 16.3004 20.6591 16.3436 20.7674 16.4249C20.8677 16.5096 20.9344 16.6275 20.9552 16.7572C20.9623 16.8076 20.9623 16.8587 20.9552 16.909V20.7099H22.9424C23.0801 20.7081 23.2155 20.7457 23.3326 20.8183C23.3852 20.8507 23.4304 20.8939 23.4653 20.9449C23.5001 20.996 23.5239 21.0537 23.5349 21.1146V21.223C23.5384 21.2949 23.5244 21.3666 23.4942 21.432C23.464 21.4974 23.4185 21.5547 23.3615 21.5987C23.2355 21.69 23.0835 21.7381 22.9279 21.736H20.4855C20.33 21.746 20.1754 21.7055 20.0447 21.6204C19.9279 21.5331 19.8501 21.4033 19.828 21.2591C19.8227 21.1797 19.8227 21.1 19.828 21.0206L19.8063 16.909ZM23.8243 16.4683C23.7177 16.59 23.661 16.7474 23.6653 16.9091L23.622 21.1868C23.6148 21.2396 23.6148 21.2931 23.622 21.3459C23.6457 21.4742 23.715 21.5897 23.8171 21.671C23.9221 21.7532 24.0523 21.7967 24.1856 21.7939C24.2654 21.7972 24.345 21.7842 24.4196 21.7556C24.4941 21.727 24.562 21.6834 24.6191 21.6276C24.7257 21.5059 24.7824 21.3485 24.7781 21.1868V19.9801L25.4212 19.3081L26.7653 21.4759C26.821 21.5775 26.9003 21.6642 26.9965 21.7288C27.0855 21.7755 27.1852 21.798 27.2856 21.7939C27.4366 21.796 27.5841 21.7477 27.7047 21.6565C27.7688 21.602 27.8187 21.5328 27.8501 21.4548C27.8816 21.3768 27.8937 21.2923 27.8853 21.2085V21.1725C27.8454 21.051 27.7869 20.9363 27.7119 20.8328V20.7605L26.2667 18.5205L27.4662 17.2053C27.5191 17.1456 27.5652 17.0802 27.6035 17.0103C27.6411 16.9442 27.6611 16.8695 27.6613 16.7934C27.6578 16.7768 27.6578 16.7596 27.6613 16.7429C27.6642 16.7286 27.6642 16.7138 27.6613 16.6995C27.651 16.6412 27.6291 16.5855 27.5968 16.5359C27.5645 16.4862 27.5226 16.4435 27.4734 16.4104C27.3692 16.3392 27.2457 16.3013 27.1194 16.302C27.033 16.3003 26.9479 16.3229 26.8737 16.3671C26.7949 16.4299 26.7201 16.4974 26.6497 16.5694L24.8215 18.6794V16.9091C24.825 16.8586 24.825 16.8078 24.8215 16.7573C24.7981 16.6268 24.7289 16.5089 24.6264 16.4249C24.5081 16.3387 24.3637 16.296 24.2176 16.3039C24.0715 16.3118 23.9326 16.3699 23.8243 16.4683Z" fill="white"/>
</svg>
